HIERARCHY
ROOT Hips
{
	OFFSET	0.00	0.00	0.00
	CHANNELS 6 Xposition Yposition Zposition Zrotation Xrotation Yrotation
	JOINT LeftUpLeg
	{
		OFFSET	 0.126116	-0.014019	-0.065224
		CHANNELS 3 Zrotation Xrotation Yrotation
		JOINT LeftLeg
		{
			OFFSET	 0.000000	 0.000000	 0.569914
			CHANNELS 3 Zrotation Xrotation Yrotation
			JOINT LeftFoot
			{
				OFFSET	 0.000000	 0.000000	 0.544423
				CHANNELS 3 Zrotation Xrotation Yrotation
				JOINT LeftToeBase
				{
					OFFSET	 0.000000	 0.000000	 0.207117
					CHANNELS 3 Zrotation Xrotation Yrotation
					End Site
					{
						OFFSET	 0.000000	 0.000000	 0.207117
					}
				}
			}
		}
	}
	JOINT RightUpLeg
	{
		OFFSET	-0.124023	-0.008373	-0.065224
		CHANNELS 3 Zrotation Xrotation Yrotation
		JOINT RightLeg
		{
			OFFSET	 0.000000	 0.000000	 0.570047
			CHANNELS 3 Zrotation Xrotation Yrotation
			JOINT RightFoot
			{
				OFFSET	 0.000000	 0.000000	 0.544354
				CHANNELS 3 Zrotation Xrotation Yrotation
				JOINT RightToeBase
				{
					OFFSET	 0.000000	 0.000000	 0.207540
					CHANNELS 3 Zrotation Xrotation Yrotation
					End Site
					{
						OFFSET	 0.000000	 0.000000	 0.207540
					}
				}
			}
		}
	}
	JOINT Spine
	{
		OFFSET	 0.000184	-0.007763	 0.117403
		CHANNELS 3 Zrotation Xrotation Yrotation
		JOINT Spine1
		{
			OFFSET	 0.000000	 0.000000	 0.137269
			CHANNELS 3 Zrotation Xrotation Yrotation
			JOINT Spine2
			{
				OFFSET	 0.000000	 0.000000	 0.156879
				CHANNELS 3 Zrotation Xrotation Yrotation
				JOINT LeftShoulder
				{
					OFFSET	 0.080501	-0.002496	 0.160144
					CHANNELS 3 Zrotation Xrotation Yrotation
					JOINT LeftArm
					{
						OFFSET	 0.000000	 0.000000	 0.164363
						CHANNELS 3 Zrotation Xrotation Yrotation
						JOINT LeftForeArm
						{
							OFFSET	 0.000000	 0.000000	 0.364576
							CHANNELS 3 Zrotation Xrotation Yrotation
							JOINT LeftHand
							{
								OFFSET	 0.000000	 0.000000	 0.360812
								CHANNELS 3 Zrotation Xrotation Yrotation
								JOINT LeftHandIndex1
								{
									OFFSET	 0.000000	 0.000000	 0.086006
									CHANNELS 3 Zrotation Xrotation Yrotation
									JOINT LeftHandIndex2
									{
										OFFSET	 0.000000	 0.000000	 0.047236
										CHANNELS 3 Zrotation Xrotation Yrotation
										JOINT LeftHandIndex3
										{
											OFFSET	-0.004284	-0.000551	 0.038166
											CHANNELS 3 Zrotation Xrotation Yrotation
											End Site
											{
												OFFSET	-0.004284	-0.000551	 0.038166
											}
										}
									}
								}
							}
						}
					}
				}
				JOINT Neck
				{
					OFFSET	 0.000000	 0.000000	 0.176489
					CHANNELS 3 Zrotation Xrotation Yrotation
					JOINT Head
					{
						OFFSET	 0.000000	-0.001747	 0.077940
						CHANNELS 3 Zrotation Xrotation Yrotation
						End Site
						{
							OFFSET	 0.000000	-0.001747	 0.077940
						}
					}
				}
				JOINT RightShoulder
				{
					OFFSET	-0.080363	 0.000306	 0.159706
					CHANNELS 3 Zrotation Xrotation Yrotation
					JOINT RightArm
					{
						OFFSET	 0.000000	 0.000000	 0.164196
						CHANNELS 3 Zrotation Xrotation Yrotation
						JOINT RightForeArm
						{
							OFFSET	 0.000000	 0.000000	 0.365611
							CHANNELS 3 Zrotation Xrotation Yrotation
							JOINT RightHand
							{
								OFFSET	 0.000000	 0.000000	 0.360648
								CHANNELS 3 Zrotation Xrotation Yrotation
								JOINT RightHandIndex1
								{
									OFFSET	 0.000000	 0.000000	 0.069977
									CHANNELS 3 Zrotation Xrotation Yrotation
									JOINT RightHandIndex2
									{
										OFFSET	 0.000000	 0.000000	 0.052305
										CHANNELS 3 Zrotation Xrotation Yrotation
										JOINT RightHandIndex3
										{
											OFFSET	 0.009002	-0.000782	 0.042196
											CHANNELS 3 Zrotation Xrotation Yrotation
											End Site
											{
												OFFSET	 0.009002	-0.000782	 0.042196
											}
										}
									}
								}
							}
						}
					}
				}
			}
		}
	}
}
MOTION
Frames:    6
Frame Time: 0.03333334
-0.000254	 0.014825	 1.270385	 0.000902	 0.016908	 0.026605	 19.035710	-2.839682	 175.830600	 1.479768	-11.422780	-0.665997	-8.551585	 69.254060	 2.657626	-2.385833	 28.452760	 0.000004	-19.170880	-2.943780	-175.887700	-1.464547	-11.569420	 0.662375	 8.391700	 69.434500	-2.642004	 2.384658	 28.388730	 0.000004	 34.480210	 1.717665	 0.099631	-0.153766	 7.068748	-0.031426	 0.512232	-9.028590	 0.131022	-91.776210	 78.527450	-180.000000	 44.095090	 32.048430	-52.497030	-25.838630	 3.310326	-9.710710	-46.836760	 0.176351	-4.411427	-2.635965	 4.993658	 6.788941	-5.165319	 0.784187	 3.516649	-5.225038	 0.466231	 0.424329	-0.000002	-3.783157	-0.089647	 0.501921	 2.995599	-0.013138	 89.782150	 78.203900	 180.000000	-1.648859	 12.373250	 109.372300	-16.639720	 2.999841	 9.846051	 21.323170	-3.516655	-5.291503	 6.112037	 4.509576	-0.364401	 4.968462	 1.518543	-9.347576	 5.168945	 0.703820	 2.021906
-0.000287	 0.014189	 1.270947	 0.000001	 0.017217	 0.016357	 19.061500	-2.525913	 175.814700	 1.487003	-10.793780	-0.628415	-8.371758	 68.867740	 2.468272	-2.385833	 28.452760	 0.000004	-19.193300	-2.627173	-175.847400	-1.471451	-10.967600	 0.627040	 8.245109	 69.083350	-2.488264	 2.384658	 28.388730	 0.000004	 35.447100	 1.715010	 0.088032	-0.017434	 7.078839	 0.014060	 0.105448	-9.042463	 0.020657	-91.776120	 78.527450	 179.999900	 44.205450	 32.066480	-52.630660	-22.748040	 2.325623	-8.181189	-45.881740	 1.087168	-4.111040	-2.635965	 4.993658	 6.788941	-5.165319	 0.784187	 3.516649	-5.225038	 0.466231	 0.424329	-0.000002	-3.783157	-0.089647	 0.120958	 2.991642	-0.003172	 89.782100	 78.203870	 180.000000	-1.741413	 12.483160	 109.381200	-19.839280	 2.007176	 8.298273	 20.545570	-2.557791	-5.662253	 6.112037	 4.509576	-0.364401	 4.968462	 1.518543	-9.347576	 5.168945	 0.703820	 2.021906
-0.000289	 0.013611	 1.271284	-0.000403	 0.017641	 0.006023	 19.078590	-2.320247	 175.807100	 1.491464	-10.386220	-0.604144	-8.258875	 68.602010	 2.349896	-2.385833	 28.452760	 0.000004	-19.197470	-2.567517	-175.826700	-1.472325	-10.888730	 0.622420	 8.242745	 69.002240	-2.488433	 2.384658	 28.388730	 0.000004	 35.266270	 1.716001	 0.078696	 0.100528	 7.076459	 0.055870	-0.247974	-9.039435	-0.076353	-91.776220	 78.527430	-180.000000	 44.331430	 32.100280	-52.808510	-19.862350	 1.574512	-6.703957	-44.963490	 1.630001	-3.951256	-2.635965	 4.993658	 6.788941	-5.165319	 0.784187	 3.516649	-5.225038	 0.466231	 0.424329	-0.000002	-3.783157	-0.089647	-0.209885	 2.992095	 0.005468	 89.782140	 78.203890	 180.000000	-1.677121	 12.630780	 109.377600	-22.828060	 1.250012	 6.802403	 19.750250	-1.947810	-5.895342	 6.112037	 4.509576	-0.364401	 4.968462	 1.518543	-9.347576	 5.168945	 0.703820	 2.021906
-0.000281	 0.012934	 1.271644	-0.000707	 0.017956	-0.006914	 19.086920	-2.235091	 175.810600	 1.493109	-10.231480	-0.594949	-8.216161	 68.453830	 2.307318	-2.385833	 28.452760	 0.000004	-19.198560	-2.551276	-175.805700	-1.472126	-10.906670	 0.623473	 8.269888	 68.963290	-2.520680	 2.384658	 28.388730	 0.000004	 33.826710	 1.721016	 0.068292	 0.237018	 7.061445	 0.105776	-0.657762	-9.018663	-0.189320	-91.776150	 78.527430	 180.000000	 44.503250	 32.170460	-53.080480	-16.292070	 0.870193	-4.828742	-43.791060	 1.936424	-3.880824	-2.635965	 4.993658	 6.788941	-5.165319	 0.784187	 3.516649	-5.225038	 0.466231	 0.424329	-0.000002	-3.783157	-0.089647	-0.593578	 2.997084	 0.015514	 89.782180	 78.203870	 179.999900	-2.010628	 12.760220	 109.286900	-26.527670	 0.538055	 4.904630	 18.634900	-1.492404	-6.067216	 6.112037	 4.509576	-0.364401	 4.968462	 1.518543	-9.347576	 5.168945	 0.703820	 2.021906
-0.000299	 0.012389	 1.272223	-0.000931	 0.017964	-0.018674	 19.090480	-2.209242	 175.817800	 1.493473	-10.197340	-0.592920	-8.206149	 68.376300	 2.299366	-2.385833	 28.452760	 0.000004	-19.199440	-2.538339	-175.787200	-1.471932	-10.924440	 0.624511	 8.293579	 68.931060	-2.548784	 2.384658	 28.388730	 0.000004	 31.530400	 1.728639	 0.059645	 0.353431	 7.038319	 0.149562	-1.007853	-8.986197	-0.285985	-91.776180	 78.527490	 180.000000	 44.667760	 32.248370	-53.359340	-13.065490	 0.443866	-3.099126	-42.694710	 1.894993	-3.911090	-2.635965	 4.993658	 6.788941	-5.165319	 0.784187	 3.516649	-5.225038	 0.466231	 0.424329	-0.000002	-3.783157	-0.089647	-0.921602	 3.005289	 0.024162	 89.782150	 78.203890	 180.000000	-3.580907	 12.633210	 109.021100	-29.863110	 0.106789	 3.157391	 17.092390	-1.197505	-6.155608	 6.112037	 4.509576	-0.364401	 4.968462	 1.518543	-9.347576	 5.168945	 0.703820	 2.021906
-0.000348	 0.011805	 1.273195	-0.001109	 0.017701	-0.032762	 19.094460	-2.180715	 175.826600	 1.493838	-10.161640	-0.590801	-8.195375	 68.288770	 2.291100	-2.385833	 28.452760	 0.000004	-19.200480	-2.524666	-175.765400	-1.471669	-10.947800	 0.625879	 8.321320	 68.895320	-2.581740	 2.384658	 28.388730	 0.000004	 27.705560	 1.741197	 0.049891	 0.486143	 6.999938	 0.200707	-1.407609	-8.932119	-0.396213	-91.776110	 78.527430	 179.999900	 44.871220	 32.356600	-53.723050	-9.206124	 0.195848	-1.007597	-41.334540	 1.472774	-4.032143	-2.635965	 4.993658	 6.788941	-5.165319	 0.784187	 3.516649	-5.225038	 0.466231	 0.424329	-0.000002	-3.783157	-0.089647	-1.296667	 3.019335	 0.034161	 89.782130	 78.203870	 180.000000	-6.892959	 12.497900	 108.543400	-33.591410	-0.142904	 1.041638	 14.856770	-1.181337	-6.134066	 6.112037	 4.509576	-0.364401	 4.968462	 1.518543	-9.347576	 5.168945	 0.703820	 2.021906
